<svg width="1200" height="820" viewBox="0 0 1200 820" fill="none" xmlns="http://www.w3.org/2000/svg">
  <rect width="1200" height="820" rx="42" fill="#F8EFE3"/>
  <rect x="100" y="110" width="1000" height="600" rx="36" fill="#FFF8EE"/>
  <rect x="156" y="196" width="320" height="428" rx="30" fill="#5A341B"/>
  <rect x="222" y="244" width="188" height="280" rx="24" fill="#FFF8EE"/>
  <circle cx="316" cy="554" r="20" fill="#C7863E"/>
  <circle cx="746" cy="326" r="116" fill="#C7863E"/>
  <path d="M746 256C706 256 674 288 674 328C674 390 746 478 746 478C746 478 818 390 818 328C818 288 786 256 746 256Z" fill="#5A341B"/>
  <circle cx="746" cy="328" r="26" fill="#FFF8EE"/>
  <rect x="856" y="238" width="172" height="36" rx="18" fill="#5A341B"/>
  <rect x="856" y="304" width="206" height="30" rx="15" fill="#C7863E"/>
  <rect x="856" y="354" width="182" height="30" rx="15" fill="#8A5630"/>
  <rect x="856" y="404" width="220" height="30" rx="15" fill="#C7863E"/>
</svg>
