<svg width="1200" height="820" viewBox="0 0 1200 820" fill="none" xmlns="http://www.w3.org/2000/svg">
  <rect width="1200" height="820" rx="42" fill="#F6EDE2"/>
  <rect y="584" width="1200" height="236" fill="#D9BA98"/>
  <rect x="94" y="126" width="372" height="430" rx="28" fill="#FFF8EE"/>
  <rect x="144" y="186" width="90" height="90" rx="18" fill="#C7863E"/>
  <rect x="256" y="186" width="90" height="90" rx="18" fill="#8A5630"/>
  <rect x="368" y="186" width="48" height="90" rx="18" fill="#5A341B"/>
  <rect x="144" y="304" width="48" height="162" rx="18" fill="#5A341B"/>
  <rect x="210" y="304" width="90" height="48" rx="18" fill="#C7863E"/>
  <rect x="210" y="372" width="156" height="48" rx="18" fill="#9A6338"/>
  <rect x="210" y="440" width="110" height="48" rx="18" fill="#6D4425"/>
  <rect x="540" y="232" width="520" height="288" rx="30" fill="#5A341B"/>
  <rect x="590" y="292" width="168" height="32" rx="16" fill="#FFF7ED"/>
  <rect x="590" y="350" width="240" height="28" rx="14" fill="#E8C58F"/>
  <rect x="590" y="398" width="208" height="28" rx="14" fill="#E8C58F"/>
  <circle cx="930" cy="380" r="74" fill="#C7863E"/>
  <path d="M930 282V478" stroke="#FFF7ED" stroke-width="30" stroke-linecap="round"/>
  <path d="M832 380H1028" stroke="#FFF7ED" stroke-width="30" stroke-linecap="round"/>
</svg>
