<svg width="1200" height="820" viewBox="0 0 1200 820" fill="none" xmlns="http://www.w3.org/2000/svg">
  <rect width="1200" height="820" rx="42" fill="#F8EFE3"/>
  <rect x="104" y="116" width="992" height="588" rx="36" fill="#FFF8EE"/>
  <path d="M174 566C314 474 386 430 524 414C688 396 768 446 1026 314" stroke="#D9BA98" stroke-width="28" stroke-linecap="round"/>
  <path d="M214 246C356 346 420 390 560 406C706 422 804 380 996 220" stroke="#E7CAA8" stroke-width="24" stroke-linecap="round"/>
  <circle cx="398" cy="432" r="72" fill="#5A341B"/>
  <path d="M398 392C376 392 358 410 358 432C358 466 398 516 398 516C398 516 438 466 438 432C438 410 420 392 398 392Z" fill="#C7863E"/>
  <circle cx="398" cy="432" r="14" fill="#FFF8EE"/>
  <circle cx="850" cy="282" r="72" fill="#5A341B"/>
  <path d="M850 242C828 242 810 260 810 282C810 316 850 366 850 366C850 366 890 316 890 282C890 260 872 242 850 242Z" fill="#C7863E"/>
  <circle cx="850" cy="282" r="14" fill="#FFF8EE"/>
  <rect x="184" y="582" width="320" height="70" rx="20" fill="#5A341B"/>
  <rect x="682" y="122" width="316" height="70" rx="20" fill="#5A341B"/>
</svg>
